<svg width="670" height="562" viewBox="0 0 670 562" fill="none" xmlns="http://www.w3.org/2000/svg">
<g clip-path="url(#clip0)">
<path d="M612.545 511.878C605.615 535.466 616.371 559.582 616.371 559.582C616.371 559.582 638.364 545.455 645.295 521.867C652.225 498.278 641.469 474.162 641.469 474.162C641.469 474.162 619.476 488.289 612.545 511.878Z" fill="#F2F2F2"/>
<path d="M623.068 512.516C628.901 536.41 617.043 559.984 617.043 559.984C617.043 559.984 595.727 544.817 589.894 520.923C584.061 497.028 595.919 473.454 595.919 473.454C595.919 473.454 617.235 488.621 623.068 512.516Z" fill="#F2F2F2"/>
<path d="M53.2891 512.818C46.3585 536.406 57.1148 560.523 57.1148 560.523C57.1148 560.523 79.1078 546.395 86.0385 522.807C92.9691 499.218 82.2128 475.102 82.2128 475.102C82.2128 475.102 60.2197 489.23 53.2891 512.818Z" fill="#E6E6E6"/>
<path d="M63.8119 513.456C69.645 537.35 57.7864 560.924 57.7864 560.924C57.7864 560.924 36.4705 545.757 30.6374 521.863C24.8043 497.968 36.6629 474.394 36.6629 474.394C36.6629 474.394 57.9789 489.561 63.8119 513.456Z" fill="#E6E6E6"/>
<path d="M310.084 291.415C337.362 291.415 359.475 268.885 359.475 241.092C359.475 213.299 337.362 190.769 310.084 190.769C282.807 190.769 260.693 213.299 260.693 241.092C260.693 268.885 282.807 291.415 310.084 291.415Z" fill="#6C63FF"/>
<path d="M307.839 560.173H294.219C292.628 560.171 291.103 559.527 289.979 558.381C288.854 557.235 288.222 555.682 288.22 554.061V438.394C288.222 436.773 288.854 435.22 289.979 434.074C291.103 432.928 292.628 432.284 294.219 432.282H307.839C309.43 432.284 310.954 432.928 312.079 434.074C313.204 435.22 313.836 436.773 313.838 438.394V554.061C313.836 555.682 313.204 557.235 312.079 558.381C310.954 559.527 309.43 560.171 307.839 560.173V560.173Z" fill="#6C63FF"/>
<path d="M346.19 372.79L339.948 360.455C339.221 359.014 339.085 357.338 339.569 355.795C340.053 354.251 341.118 352.967 342.531 352.222L443.435 299.217C444.849 298.476 446.494 298.337 448.009 298.831C449.524 299.324 450.785 300.409 451.515 301.849L457.757 314.184C458.484 315.625 458.621 317.301 458.136 318.844C457.652 320.388 456.587 321.673 455.174 322.417L354.271 375.422C352.856 376.163 351.211 376.302 349.696 375.809C348.181 375.315 346.92 374.23 346.19 372.79V372.79Z" fill="#6C63FF"/>
<path d="M381.088 498.134L370.007 506.207C368.713 507.147 367.104 507.527 365.535 507.261C363.967 506.995 362.565 506.107 361.639 504.79L295.609 410.699C294.686 409.38 294.314 407.741 294.574 406.143C294.835 404.545 295.707 403.117 297 402.173L308.08 394.101C309.375 393.16 310.983 392.78 312.552 393.046C314.121 393.312 315.522 394.201 316.449 395.518L382.478 489.608C383.402 490.927 383.774 492.566 383.513 494.164C383.253 495.763 382.38 497.19 381.088 498.134V498.134Z" fill="#6C63FF"/>
<path d="M345.314 559.362L333.12 553.176C330.159 551.674 328.495 548.928 329.411 547.054L360.837 482.739C361.753 480.865 364.907 480.563 367.868 482.065L380.061 488.25C383.022 489.752 384.686 492.499 383.771 494.372L352.344 558.687C351.429 560.561 348.275 560.863 345.314 559.362Z" fill="#6C63FF"/>
<path d="M344.993 259.702L344.941 257.822C348.375 257.724 351.402 257.505 353.677 255.812C354.322 255.304 354.852 254.662 355.231 253.927C355.61 253.192 355.83 252.383 355.875 251.554C355.915 251.047 355.839 250.538 355.655 250.066C355.47 249.594 355.181 249.172 354.811 248.832C353.301 247.532 350.871 247.952 349.1 248.781L347.573 249.494L350.501 227.689L352.33 227.944L349.839 246.493C352.246 245.772 354.475 246.081 356.002 247.396C356.588 247.918 357.049 248.57 357.346 249.303C357.644 250.036 357.772 250.829 357.719 251.62C357.665 252.734 357.373 253.822 356.863 254.808C356.352 255.795 355.637 256.656 354.766 257.331C351.843 259.507 348.045 259.615 344.993 259.702Z" fill="#2F2E41"/>
<path d="M339.937 229.543H329.996V231.424H339.937V229.543Z" fill="#2F2E41"/>
<path d="M388.679 412.785C388.679 453.81 350.5 450.396 310.235 450.396C269.97 450.396 242.866 453.81 242.866 412.785C242.866 371.76 269.97 301.831 310.235 301.831C350.5 301.831 388.679 371.76 388.679 412.785Z" fill="#CCCCCC"/>
<path d="M339.28 187.803C337.435 176.599 330.469 166.967 321.506 160.465C312.72 154.204 302.216 150.932 291.496 151.117C270.737 151.35 250.44 163.196 239.311 180.971C226.982 200.664 226.738 226.38 235.073 247.672C237.204 253.156 239.906 258.393 243.132 263.291C246.71 268.693 251.044 273.458 255.26 278.337C263.117 287.429 272.124 300.073 266.859 312.759C264.915 317.445 260.812 321.705 255.592 322.041C251.185 322.324 246.299 320.176 244.345 315.956C242.156 311.227 245.187 305.631 249.665 303.696C254.361 301.666 259.242 304.66 260.977 309.266C261.839 311.387 261.869 313.763 261.059 315.905C260.887 316.231 260.842 316.612 260.934 316.97C261.026 317.328 261.248 317.638 261.556 317.835C261.873 318.022 262.25 318.073 262.605 317.978C262.959 317.884 263.263 317.65 263.45 317.329C264.382 314.956 264.584 312.35 264.03 309.857C263.476 307.363 262.191 305.1 260.347 303.368C258.475 301.541 256.028 300.449 253.441 300.286C250.854 300.123 248.293 300.899 246.215 302.477C241.826 305.744 239.505 311.59 241.729 316.866C243.655 321.434 248.315 324.193 253.02 324.775C255.616 325.036 258.234 324.607 260.619 323.531C263.004 322.455 265.075 320.769 266.631 318.635C270.101 314.005 271.674 308.184 271.017 302.396C269.477 287.959 258.157 278.089 249.658 267.523C242.101 258.056 236.776 246.949 234.091 235.057C231.343 223.368 231.446 211.172 234.389 199.532C237.244 188.496 243.111 178.511 251.311 170.735C259.181 163.305 268.792 158.058 279.223 155.498C289.536 152.882 300.388 153.555 310.314 157.425C320.718 161.63 329.951 169.951 334.35 180.546C335.408 183.116 336.166 185.803 336.61 188.553C336.904 190.34 339.572 189.582 339.28 187.803V187.803Z" fill="#2F2E41"/>
<path d="M339.219 188.228C343.842 183.691 351.377 183.036 356.946 186.11C362.707 189.289 365.019 196.136 363.541 202.472C362.783 206.011 360.776 209.143 357.901 211.275C356.449 212.305 357.832 214.751 359.299 213.71C365.53 209.29 368.155 200.773 366.028 193.404C363.807 185.711 356.432 181.118 348.729 181.424C344.457 181.54 340.376 183.251 337.261 186.234C335.976 187.495 337.935 189.489 339.219 188.228Z" fill="#2F2E41"/>
<path d="M298.784 357.957L306.427 346.47C307.321 345.13 308.7 344.205 310.262 343.9C311.824 343.595 313.441 343.933 314.758 344.84L408.727 409.744C410.042 410.655 410.949 412.06 411.249 413.652C411.549 415.243 411.217 416.89 410.326 418.233L402.683 429.72C401.789 431.06 400.41 431.984 398.848 432.29C397.286 432.595 395.669 432.257 394.352 431.349L300.383 366.446C299.068 365.535 298.161 364.13 297.861 362.538C297.561 360.947 297.893 359.299 298.784 357.957V357.957Z" fill="#6C63FF"/>
<path d="M475.554 298.62C475.805 295.3 474.893 291.997 472.978 289.299L448.835 271.746C448.377 271.413 447.859 271.175 447.311 271.046C446.763 270.917 446.195 270.899 445.639 270.994C445.084 271.088 444.553 271.294 444.076 271.597C443.598 271.901 443.184 272.298 442.858 272.765L439.387 277.72C439.374 277.707 439.374 277.686 439.359 277.675C439.289 277.625 439.203 277.604 439.118 277.619C439.034 277.633 438.958 277.681 438.908 277.752L437.486 279.783C437.461 279.818 437.444 279.858 437.434 279.9C437.425 279.942 437.423 279.986 437.43 280.029C437.437 280.071 437.453 280.112 437.475 280.149C437.498 280.185 437.527 280.217 437.561 280.242C437.577 280.254 437.596 280.246 437.612 280.254L436.079 282.444C436.069 282.433 436.059 282.421 436.048 282.411C436.01 282.383 435.967 282.364 435.921 282.353C435.876 282.342 435.828 282.341 435.782 282.348C435.736 282.356 435.691 282.373 435.652 282.399C435.612 282.424 435.577 282.457 435.55 282.496L432.834 286.375C432.806 286.414 432.787 286.458 432.776 286.504C432.766 286.551 432.764 286.599 432.772 286.646C432.78 286.693 432.797 286.738 432.821 286.779C432.846 286.819 432.879 286.854 432.917 286.882C432.93 286.889 432.943 286.896 432.957 286.901L431.855 288.475C431.847 288.468 431.842 288.459 431.834 288.452C431.76 288.399 431.669 288.378 431.58 288.393C431.491 288.408 431.412 288.458 431.359 288.533L428.593 292.482C428.541 292.557 428.52 292.65 428.535 292.741C428.55 292.832 428.599 292.913 428.673 292.966C428.681 292.972 428.692 292.973 428.701 292.979L402.703 330.1C402.451 333.42 403.364 336.723 405.278 339.421L429.421 356.974C429.879 357.307 430.397 357.545 430.946 357.674C431.494 357.803 432.062 357.821 432.617 357.726C433.172 357.632 433.704 357.427 434.181 357.123C434.658 356.819 435.072 356.423 435.399 355.956L463.376 316.008C463.405 316.051 463.44 316.089 463.48 316.122C463.542 316.166 463.611 316.197 463.685 316.214C463.758 316.231 463.834 316.233 463.909 316.219C463.983 316.206 464.054 316.178 464.118 316.137C464.181 316.096 464.236 316.042 464.28 315.979L469.08 309.125C469.124 309.063 469.156 308.992 469.174 308.917C469.191 308.843 469.194 308.765 469.182 308.689C469.17 308.614 469.144 308.541 469.105 308.475C469.065 308.41 469.013 308.353 468.952 308.308C468.909 308.28 468.862 308.259 468.813 308.245L475.554 298.62Z" fill="#3A3768"/>
<path d="M470.799 290.342L467.244 287.743L466.938 288.176C466.559 288.707 465.993 289.067 465.358 289.18C464.723 289.293 464.07 289.151 463.537 288.782L452.177 280.517C451.638 280.124 451.274 279.529 451.166 278.863C451.057 278.197 451.213 277.514 451.598 276.965L451.904 276.532L448.503 274.106C447.852 273.628 447.041 273.433 446.248 273.563C445.456 273.694 444.747 274.141 444.277 274.804L444.269 274.817L405.018 330.871C404.551 331.538 404.362 332.366 404.493 333.175C404.624 333.983 405.063 334.706 405.715 335.185L428.061 351.421C428.714 351.897 429.526 352.09 430.318 351.956C431.11 351.823 431.818 351.374 432.285 350.709L432.296 350.693L471.547 294.656C472.01 293.988 472.194 293.16 472.058 292.354C471.922 291.548 471.477 290.83 470.821 290.358L470.799 290.342Z" fill="#F2F2F2"/>
<path d="M456.99 280.601L460.451 283.117C460.509 283.16 460.559 283.213 460.596 283.275C460.634 283.337 460.66 283.406 460.672 283.477C460.683 283.549 460.681 283.623 460.665 283.694C460.649 283.765 460.619 283.832 460.578 283.891C460.536 283.95 460.484 284.001 460.423 284.039C460.363 284.078 460.295 284.104 460.225 284.116C460.154 284.128 460.082 284.125 460.012 284.109C459.943 284.093 459.877 284.062 459.819 284.02L456.358 281.504C456.3 281.462 456.25 281.408 456.212 281.346C456.174 281.285 456.149 281.216 456.137 281.144C456.125 281.072 456.128 280.999 456.144 280.928C456.16 280.857 456.189 280.79 456.231 280.731V280.731C456.272 280.671 456.325 280.621 456.386 280.582C456.446 280.544 456.514 280.518 456.584 280.506C456.655 280.494 456.727 280.496 456.796 280.512C456.866 280.529 456.932 280.559 456.99 280.601V280.601Z" fill="#E6E8EC"/>
<path d="M461.649 285.404C461.987 285.404 462.261 285.124 462.261 284.78C462.261 284.435 461.987 284.156 461.649 284.156C461.311 284.156 461.037 284.435 461.037 284.78C461.037 285.124 461.311 285.404 461.649 285.404Z" fill="#E6E8EC"/>
<path d="M447.75 0C431.351 0 415.624 6.63739 404.028 18.452C392.433 30.2666 385.918 46.2906 385.918 62.999C385.918 97.7895 450.703 226.138 450.703 226.138C450.703 226.138 509.582 97.8083 509.582 63.0084C509.583 54.7353 507.985 46.5429 504.879 38.899C501.773 31.2552 497.219 24.3095 491.479 18.4586C485.738 12.6078 478.922 7.96625 471.421 4.79911C463.919 1.63197 455.879 0.00123471 447.759 0H447.75ZM447.75 105.011C441.344 105.011 435.081 103.075 429.754 99.4487C424.427 95.8222 420.275 90.6677 417.823 84.637C415.372 78.6063 414.73 71.9703 415.98 65.5682C417.23 59.166 420.315 53.2853 424.845 48.6696C429.375 44.0539 435.147 40.9106 441.431 39.6372C447.714 38.3637 454.227 39.0173 460.146 41.5153C466.065 44.0133 471.124 48.2435 474.684 53.6709C478.243 59.0984 480.143 65.4794 480.143 72.0069V72.0069C480.143 80.7601 476.73 89.1548 470.655 95.3443C464.58 101.534 456.341 105.011 447.75 105.011V105.011Z" fill="#6C63FF"/>
<path d="M670 560.119H0V562H670V560.119Z" fill="#3F3D56"/>
</g>
<defs>
<clipPath id="clip0">
<rect width="670" height="562" fill="white"/>
</clipPath>
</defs>
</svg>
